<svg xmlns="http://www.w3.org/2000/svg" width="1024" height="1024" viewBox="0 0 1024 1024"><path d="M215 198 Q215 250 267 250 Q215 250 215 302 Q215 250 163 250 Q215 250 215 198 Z" fill="#fff"/><path d="M330 117 Q330 145 358 145 Q330 145 330 173 Q330 145 302 145 Q330 145 330 117 Z" fill="#fff"/><path d="M160 378 Q160 400 182 400 Q160 400 160 422 Q160 400 138 400 Q160 400 160 378 Z" fill="#fff"/><path d="M850 170 Q850 190 870 190 Q850 190 850 210 Q850 190 830 190 Q850 190 850 170 Z" fill="#fff"/></svg>
